<?xml version="1.0" encoding="utf-8" ?>
<svg xmlns="http://www.w3.org/2000/svg" xmlns:xlink="http://www.w3.org/1999/xlink" width="1024" height="1024">
	<path fill="#FEFEFE" d="M0 0L1024 0L1024 1024L0 1024L0 0Z"/>
	<path fill="#105945" d="M743.961 83.4118C753.143 83.9873 762.638 86.0889 771.601 88.1062C817.187 98.3656 857.636 121.446 888.557 156.568Q890.747 159.037 892.859 161.573Q894.971 164.109 897.003 166.71Q899.034 169.312 900.982 171.975Q902.931 174.639 904.795 177.363Q906.659 180.086 908.437 182.867Q910.214 185.648 911.904 188.483Q913.593 191.318 915.192 194.205Q916.792 197.092 918.3 200.028Q919.808 202.964 921.224 205.945Q922.639 208.927 923.96 211.951Q925.281 214.976 926.506 218.04Q927.731 221.105 928.86 224.206Q929.988 227.308 931.019 230.443Q932.049 233.579 932.981 236.745Q933.912 239.911 934.744 243.105Q935.576 246.299 936.307 249.517C943.291 280.786 941.221 312.564 941.172 344.362L941.13 446.288L941.43 594.567L941.36 634.778C941.359 641.777 941.642 648.891 941.33 655.872L941.451 712.391C941.488 724.475 941.976 736.745 940.95 748.782Q940.758 751.04 940.517 753.294Q940.276 755.548 939.985 757.796Q939.694 760.043 939.354 762.284Q939.014 764.525 938.625 766.758Q938.236 768.991 937.797 771.215Q937.359 773.439 936.872 775.652Q936.385 777.866 935.85 780.068Q935.314 782.271 934.73 784.461Q934.146 786.651 933.515 788.828Q932.883 791.004 932.203 793.167Q931.524 795.329 930.797 797.476Q930.07 799.623 929.296 801.753Q928.522 803.883 927.702 805.996Q926.881 808.109 926.014 810.203Q925.147 812.297 924.235 814.372Q923.322 816.447 922.364 818.501Q921.406 820.555 920.403 822.588Q919.4 824.62 918.353 826.63Q917.306 828.641 916.214 830.627Q915.123 832.614 913.988 834.576Q912.854 836.538 911.676 838.475Q910.499 840.411 909.279 842.322Q908.059 844.232 906.797 846.115Q905.536 847.998 904.233 849.853Q902.931 851.708 901.588 853.534Q900.245 855.359 898.862 857.155Q897.479 858.951 896.057 860.716Q894.635 862.481 893.174 864.214Q891.714 865.948 890.216 867.648Q888.717 869.349 887.182 871.017Q885.647 872.684 884.076 874.317Q882.504 875.951 880.897 877.549Q879.352 879.09 877.776 880.6Q876.2 882.111 874.595 883.589Q872.99 885.068 871.355 886.514Q869.721 887.961 868.058 889.374Q866.395 890.788 864.704 892.168Q863.013 893.548 861.296 894.894Q859.578 896.24 857.833 897.552Q856.089 898.864 854.319 900.14Q852.549 901.417 850.753 902.658Q848.958 903.899 847.139 905.105Q845.319 906.31 843.476 907.479Q841.633 908.647 839.767 909.779Q837.901 910.911 836.012 912.006Q834.124 913.1 832.214 914.157Q830.305 915.213 828.374 916.232Q826.444 917.25 824.494 918.23Q822.544 919.21 820.574 920.151Q818.605 921.091 816.617 921.993Q814.63 922.894 812.624 923.756Q810.619 924.617 808.597 925.439Q806.575 926.26 804.537 927.041Q802.499 927.823 800.446 928.563Q798.393 929.303 796.326 930.003Q794.258 930.702 792.177 931.36Q790.096 932.018 788.002 932.635Q785.909 933.251 783.803 933.826Q781.698 934.4 779.581 934.933Q777.465 935.466 775.338 935.956Q773.211 936.447 771.075 936.894Q768.939 937.342 766.795 937.748Q764.65 938.153 762.498 938.516Q760.346 938.878 758.187 939.198C746.217 940.917 734.154 941.332 722.076 941.335L564.144 941.165L400.043 941.028L329.885 941.047C293.649 941.051 265.361 942.754 230.163 931.473C179.137 915.118 132.59 876.473 108.034 828.634C109.966 828.83 140.228 844.283 146.704 846.685C166.109 853.882 186.925 858.179 207.348 861.238L208.021 861.453C214.24 863.493 219.997 867.065 225.953 869.771C235.35 874.04 245.779 876.974 255.921 878.866C270.326 881.552 284.966 881.129 299.55 881.127L342.181 881.113L504.249 880.982C502.487 876.797 487.345 863.029 483.317 858.978L415.37 791.761L368.778 744.452C361.374 737.02 349.966 727.97 344.039 720.07C353.461 725.79 362.182 732.751 371.648 738.519C405.308 759.034 442.564 773.007 481.857 777.505Q485.061 777.877 488.273 778.171Q491.486 778.465 494.704 778.681Q497.923 778.896 501.145 779.034Q504.368 779.171 507.593 779.23Q510.818 779.289 514.044 779.27Q517.27 779.25 520.494 779.153Q523.718 779.055 526.939 778.879Q530.16 778.702 533.375 778.448Q536.591 778.193 539.8 777.861Q543.008 777.528 546.207 777.118Q549.407 776.707 552.595 776.219Q555.784 775.731 558.96 775.166Q562.135 774.6 565.296 773.957Q568.457 773.315 571.602 772.596Q574.746 771.876 577.872 771.081Q580.999 770.285 584.104 769.414Q587.21 768.543 590.294 767.596Q593.378 766.65 596.437 765.629Q599.497 764.607 602.531 763.512Q605.565 762.417 608.572 761.248Q611.578 760.079 614.555 758.838Q617.533 757.596 620.479 756.283Q623.425 754.969 626.338 753.584Q629.251 752.2 632.13 750.744Q635.009 749.289 637.851 747.764Q640.694 746.24 643.499 744.646Q646.303 743.053 649.068 741.392Q651.833 739.73 654.557 738.003Q657.281 736.275 659.962 734.481Q662.643 732.687 665.28 730.829Q667.916 728.971 670.507 727.049Q673.098 725.127 675.641 723.143Q678.233 721.093 680.775 718.98Q683.316 716.867 685.805 714.692Q688.294 712.518 690.729 710.283Q693.164 708.048 695.543 705.754Q697.923 703.461 700.245 701.109Q702.568 698.758 704.833 696.351Q707.097 693.943 709.302 691.482Q711.507 689.02 713.651 686.504Q715.795 683.989 717.877 681.422Q719.959 678.855 721.978 676.238Q723.996 673.621 725.95 670.956Q727.904 668.29 729.792 665.577Q731.68 662.865 733.501 660.107Q735.322 657.349 737.076 654.547Q738.829 651.745 740.513 648.901Q742.197 646.058 743.811 643.174Q745.425 640.29 746.968 637.367Q748.511 634.444 749.982 631.484Q751.453 628.525 752.852 625.53Q754.25 622.536 755.574 619.508Q756.899 616.479 758.149 613.42Q759.399 610.36 760.574 607.271Q761.749 604.182 762.848 601.065Q763.947 597.948 764.969 594.805Q765.992 591.662 766.937 588.495Q767.882 585.328 768.75 582.139Q769.617 578.95 770.406 575.741Q771.195 572.531 771.906 569.304Q772.616 566.076 773.248 562.832Q773.879 559.587 774.431 556.329Q774.982 553.07 775.454 549.799Q775.926 546.528 776.318 543.246Q776.644 540.41 776.908 537.567Q777.173 534.724 777.377 531.876Q777.581 529.028 777.724 526.177Q777.868 523.325 777.95 520.471Q778.032 517.617 778.053 514.762Q778.074 511.907 778.034 509.053Q777.995 506.198 777.894 503.344Q777.793 500.491 777.631 497.641Q777.469 494.79 777.246 491.944Q777.024 489.097 776.74 486.256Q776.457 483.415 776.113 480.581Q775.768 477.747 775.364 474.92Q774.959 472.094 774.494 469.277Q774.029 466.46 773.504 463.654Q772.979 460.847 772.394 458.053Q771.81 455.258 771.165 452.477Q770.521 449.695 769.817 446.928Q769.113 444.161 768.35 441.41Q767.588 438.659 766.766 435.924Q765.945 433.19 765.065 430.474Q764.186 427.758 763.248 425.061Q762.311 422.364 761.316 419.688Q760.321 417.012 759.269 414.357Q758.218 411.703 757.109 409.072Q756.001 406.441 754.837 403.834Q753.672 401.227 752.453 398.645Q751.233 396.064 749.958 393.509Q748.684 390.954 747.355 388.427Q746.026 385.9 744.643 383.402Q743.26 380.904 741.825 378.436Q740.389 375.969 738.901 373.532Q737.413 371.095 735.873 368.691C728.698 357.429 720.366 346.978 712.056 336.545C717.386 338.965 774.789 398.012 783.793 407.06L848.375 471.358C859.875 482.676 871.148 494.195 883.05 505.099L883.056 342.844L883.041 296.875C883.034 286.912 883.286 276.865 882.594 266.923C881.838 256.06 879.434 236.973 875.105 227.221Q874.918 226.261 874.694 225.31C871.063 209.676 864.288 194.185 857.074 179.903C851.567 169.001 846.059 158.021 839.135 147.932C825.656 128.293 805.446 111.683 784.45 100.544C776.958 96.5685 769.196 92.8701 761.273 89.8333C756.766 88.1057 748.491 86.4611 744.711 83.9371C744.457 83.7675 744.211 83.5869 743.961 83.4118Z"/>
	<path fill="#083327" d="M882.818 505.113C895.606 516.727 907.466 529.841 919.404 542.33C925.019 548.205 934.577 559.729 941.105 563.438C940.978 574.194 939.877 653.378 941.33 655.872L941.451 712.391C941.488 724.475 941.976 736.745 940.95 748.782Q940.758 751.04 940.517 753.294Q940.276 755.548 939.985 757.796Q939.694 760.043 939.354 762.284Q939.014 764.525 938.625 766.758Q938.236 768.991 937.797 771.215Q937.359 773.439 936.872 775.652Q936.385 777.866 935.85 780.068Q935.314 782.271 934.73 784.461Q934.146 786.651 933.515 788.828Q932.883 791.004 932.203 793.167Q931.524 795.329 930.797 797.476Q930.07 799.623 929.296 801.753Q928.522 803.883 927.702 805.996Q926.881 808.109 926.014 810.203Q925.147 812.297 924.235 814.372Q923.322 816.447 922.364 818.501Q921.406 820.555 920.403 822.588Q919.4 824.62 918.353 826.63Q917.306 828.641 916.214 830.627Q915.123 832.614 913.988 834.576Q912.854 836.538 911.676 838.475Q910.499 840.411 909.279 842.322Q908.059 844.232 906.797 846.115Q905.536 847.998 904.233 849.853Q902.931 851.708 901.588 853.534Q900.245 855.359 898.862 857.155Q897.479 858.951 896.057 860.716Q894.635 862.481 893.174 864.214Q891.714 865.948 890.216 867.648Q888.717 869.349 887.182 871.017Q885.647 872.684 884.076 874.317Q882.504 875.951 880.897 877.549Q879.352 879.09 877.776 880.6Q876.2 882.111 874.595 883.589Q872.99 885.068 871.355 886.514Q869.721 887.961 868.058 889.374Q866.395 890.788 864.704 892.168Q863.013 893.548 861.296 894.894Q859.578 896.24 857.833 897.552Q856.089 898.864 854.319 900.14Q852.549 901.417 850.753 902.658Q848.958 903.899 847.139 905.105Q845.319 906.31 843.476 907.479Q841.633 908.647 839.767 909.779Q837.901 910.911 836.012 912.006Q834.124 913.1 832.214 914.157Q830.305 915.213 828.374 916.232Q826.444 917.25 824.494 918.23Q822.544 919.21 820.574 920.151Q818.605 921.091 816.617 921.993Q814.63 922.894 812.624 923.756Q810.619 924.617 808.597 925.439Q806.575 926.26 804.537 927.041Q802.499 927.823 800.446 928.563Q798.393 929.303 796.326 930.003Q794.258 930.702 792.177 931.36Q790.096 932.018 788.002 932.635Q785.909 933.251 783.803 933.826Q781.698 934.4 779.581 934.933Q777.465 935.466 775.338 935.956Q773.211 936.447 771.075 936.894Q768.939 937.342 766.795 937.748Q764.65 938.153 762.498 938.516Q760.346 938.878 758.187 939.198C746.217 940.917 734.154 941.332 722.076 941.335L564.144 941.165C562.795 936.935 512.115 887.644 504.679 881.085C512.548 880.365 520.841 880.683 528.751 880.604L572.13 880.3L730.136 880.762Q732.021 880.752 733.904 880.695Q735.788 880.639 737.67 880.535Q739.551 880.432 741.43 880.282Q743.308 880.133 745.183 879.937Q747.057 879.741 748.926 879.498Q750.795 879.256 752.657 878.967Q754.52 878.679 756.374 878.345Q758.229 878.01 760.075 877.63Q761.921 877.25 763.756 876.824Q765.592 876.399 767.417 875.928Q769.242 875.457 771.054 874.941Q772.867 874.425 774.666 873.865Q776.466 873.305 778.25 872.7Q780.035 872.095 781.805 871.447Q783.574 870.798 785.327 870.106Q787.08 869.413 788.815 868.678Q790.55 867.943 792.267 867.165Q793.983 866.387 795.68 865.567Q797.377 864.747 799.053 863.885Q800.728 863.023 802.383 862.12Q804.037 861.217 805.668 860.273Q807.299 859.33 808.907 858.346Q810.514 857.363 812.097 856.34Q813.68 855.317 815.237 854.255Q816.794 853.193 818.324 852.093Q819.854 850.993 821.357 849.855Q822.859 848.718 824.333 847.544Q825.807 846.369 827.251 845.159Q828.696 843.949 830.11 842.703Q831.524 841.457 832.907 840.177Q834.29 838.897 835.641 837.583Q836.992 836.269 838.31 834.922Q840.19 833.012 842.003 831.039Q843.816 829.066 845.56 827.031Q847.304 824.997 848.977 822.903Q850.65 820.81 852.25 818.661Q853.85 816.511 855.375 814.308Q856.9 812.104 858.349 809.85Q859.797 807.596 861.167 805.293Q862.537 802.99 863.827 800.641Q865.117 798.292 866.326 795.901Q867.534 793.509 868.66 791.077Q869.785 788.645 870.827 786.176Q871.868 783.707 872.824 781.204Q873.779 778.7 874.648 776.165Q875.518 773.63 876.299 771.067Q877.08 768.504 877.773 765.915Q878.466 763.327 879.069 760.716C883.523 741.807 883.002 722.754 883.02 703.49L883.04 657.002L882.818 505.113Z"/>
	<path fill="#188064" d="M108.034 828.634C107.952 828.542 107.854 828.462 107.786 828.36C105.272 824.555 103.289 819.771 101.384 815.622C92.3991 796.051 85.7895 775.602 83.1894 754.162C80.5933 732.755 81.8421 710.924 81.7569 689.399L81.7403 564.356L81.7314 378.759L81.6883 323.279C81.6801 309.878 81.486 296.423 82.3373 283.042Q83.1475 270.925 85.2582 258.966Q87.3689 247.007 90.7554 235.345Q91.4904 232.86 92.2853 230.394Q93.0803 227.928 93.9346 225.482Q94.789 223.036 95.7022 220.611Q96.6155 218.187 97.5872 215.785Q98.5589 213.383 99.5884 211.005Q100.618 208.628 101.705 206.275Q102.791 203.923 103.935 201.598Q105.078 199.273 106.277 196.976Q107.476 194.68 108.731 192.413Q109.985 190.145 111.294 187.909Q112.603 185.673 113.966 183.47Q115.329 181.266 116.744 179.096Q118.16 176.926 119.627 174.79Q121.095 172.655 122.614 170.556Q124.133 168.457 125.702 166.395Q127.271 164.333 128.89 162.31Q130.509 160.287 132.176 158.304Q133.843 156.32 135.557 154.378Q137.272 152.435 139.033 150.535Q140.794 148.634 142.601 146.777Q144.408 144.92 146.258 143.107Q148.109 141.294 150.004 139.526Q151.898 137.758 153.835 136.037Q155.771 134.315 157.749 132.641Q159.726 130.967 161.744 129.342Q163.762 127.716 165.818 126.14Q167.874 124.563 169.968 123.037Q172.062 121.511 174.192 120.036Q176.322 118.561 178.487 117.137Q180.652 115.714 182.851 114.344Q185.05 112.974 187.282 111.657Q189.513 110.34 191.776 109.078C215.563 95.9269 242.69 86.4935 269.747 83.3368C294.511 80.4477 320.059 82.011 344.976 81.8876L498.311 81.9196Q583.474 81.3812 668.637 81.8221C688.01 81.8364 707.406 81.3072 726.769 82.0138C732.073 82.2074 738.884 81.9481 743.961 83.4118C744.211 83.5869 744.457 83.7675 744.711 83.9371C748.491 86.4611 756.766 88.1057 761.273 89.8333C769.196 92.8701 776.958 96.5685 784.45 100.544C805.446 111.683 825.656 128.293 839.135 147.932C846.059 158.021 851.567 169.001 857.074 179.903C864.288 194.185 871.063 209.676 874.694 225.31Q874.918 226.261 875.105 227.221C879.434 236.973 881.838 256.06 882.594 266.923C883.286 276.865 883.034 286.912 883.041 296.875L883.056 342.844L883.05 505.099C871.148 494.195 859.875 482.676 848.375 471.358L783.793 407.06C774.789 398.012 717.386 338.965 712.056 336.545C720.366 346.978 728.698 357.429 735.873 368.691Q737.413 371.095 738.901 373.532Q740.389 375.969 741.825 378.436Q743.26 380.904 744.643 383.402Q746.026 385.9 747.355 388.427Q748.684 390.954 749.958 393.509Q751.233 396.064 752.453 398.645Q753.672 401.227 754.836 403.834Q756.001 406.441 757.109 409.072Q758.217 411.703 759.269 414.357Q760.321 417.012 761.316 419.688Q762.311 422.364 763.248 425.061Q764.186 427.758 765.065 430.474Q765.945 433.19 766.766 435.924Q767.588 438.659 768.35 441.41Q769.113 444.161 769.817 446.928Q770.521 449.695 771.165 452.477Q771.809 455.258 772.394 458.053Q772.979 460.847 773.504 463.654Q774.029 466.46 774.494 469.277Q774.959 472.094 775.364 474.92Q775.768 477.747 776.113 480.581Q776.457 483.415 776.74 486.256Q777.024 489.097 777.246 491.944Q777.469 494.79 777.631 497.641Q777.793 500.491 777.894 503.344Q777.995 506.198 778.034 509.053Q778.074 511.907 778.053 514.762Q778.032 517.617 777.95 520.471Q777.868 523.325 777.724 526.177Q777.581 529.028 777.377 531.876Q777.173 534.724 776.908 537.567Q776.644 540.41 776.318 543.246Q775.926 546.528 775.454 549.799Q774.982 553.07 774.431 556.329Q773.879 559.587 773.248 562.832Q772.616 566.076 771.906 569.304Q771.195 572.531 770.406 575.741Q769.617 578.95 768.75 582.139Q767.882 585.328 766.937 588.495Q765.992 591.662 764.969 594.805Q763.947 597.948 762.848 601.065Q761.749 604.182 760.574 607.271Q759.399 610.36 758.149 613.42Q756.899 616.479 755.574 619.507Q754.25 622.535 752.851 625.53Q751.453 628.525 749.982 631.484Q748.511 634.444 746.968 637.367Q745.425 640.289 743.811 643.174Q742.197 646.058 740.513 648.901Q738.829 651.745 737.076 654.547Q735.322 657.349 733.501 660.107Q731.68 662.865 729.792 665.577Q727.904 668.29 725.95 670.956Q723.996 673.621 721.978 676.238Q719.959 678.855 717.877 681.422Q715.795 683.989 713.651 686.504Q711.507 689.02 709.302 691.482Q707.097 693.943 704.833 696.351Q702.568 698.758 700.245 701.109Q697.923 703.461 695.543 705.754Q693.164 708.048 690.729 710.283Q688.294 712.517 685.805 714.692Q683.316 716.867 680.775 718.98Q678.233 721.093 675.641 723.143Q673.098 725.127 670.507 727.049Q667.916 728.971 665.28 730.829Q662.643 732.687 659.962 734.481Q657.281 736.275 654.557 738.003Q651.833 739.73 649.068 741.392Q646.303 743.053 643.499 744.646Q640.694 746.24 637.851 747.764Q635.009 749.289 632.13 750.744Q629.251 752.2 626.338 753.584Q623.425 754.969 620.479 756.283Q617.532 757.596 614.555 758.838Q611.578 760.079 608.572 761.248Q605.565 762.417 602.531 763.512Q599.497 764.607 596.437 765.629Q593.378 766.65 590.294 767.596Q587.21 768.543 584.104 769.414Q580.999 770.285 577.872 771.081Q574.746 771.876 571.602 772.596Q568.457 773.315 565.296 773.958Q562.135 774.6 558.96 775.166Q555.784 775.731 552.595 776.219Q549.407 776.707 546.207 777.118Q543.008 777.528 539.799 777.861Q536.591 778.193 533.375 778.448Q530.16 778.702 526.939 778.879Q523.718 779.055 520.494 779.153Q517.27 779.25 514.044 779.27Q510.818 779.289 507.593 779.23Q504.368 779.171 501.145 779.034Q497.923 778.896 494.704 778.681Q491.486 778.465 488.273 778.171Q485.061 777.877 481.857 777.505C442.564 773.007 405.308 759.034 371.648 738.519C362.182 732.751 353.461 725.79 344.039 720.07C349.966 727.97 361.374 737.02 368.778 744.452L415.37 791.761L483.317 858.978C487.345 863.029 502.487 876.797 504.249 880.982L342.181 881.113L299.55 881.127C284.966 881.129 270.326 881.552 255.921 878.866C245.779 876.974 235.35 874.04 225.953 869.771C219.997 867.065 214.24 863.493 208.021 861.453L207.348 861.238C186.925 858.179 166.109 853.882 146.704 846.685C140.228 844.283 109.966 828.83 108.034 828.634Z"/>
	<path fill="#38A389" d="M108.034 828.634C107.952 828.542 107.854 828.462 107.786 828.36C105.272 824.555 103.289 819.771 101.384 815.622C92.3991 796.051 85.7895 775.602 83.1894 754.162C80.5933 732.755 81.8421 710.924 81.7569 689.399L81.7403 564.356L81.7314 378.759L81.6883 323.279C81.6801 309.878 81.486 296.423 82.3373 283.042Q83.1475 270.925 85.2582 258.966Q87.3689 247.007 90.7554 235.345Q91.4904 232.86 92.2853 230.394Q93.0803 227.928 93.9346 225.482Q94.789 223.036 95.7022 220.611Q96.6155 218.187 97.5872 215.785Q98.5589 213.383 99.5884 211.005Q100.618 208.628 101.705 206.275Q102.791 203.923 103.935 201.598Q105.078 199.273 106.277 196.976Q107.476 194.68 108.731 192.413Q109.985 190.145 111.294 187.909Q112.603 185.673 113.966 183.47Q115.329 181.266 116.744 179.096Q118.16 176.926 119.627 174.79Q121.095 172.655 122.614 170.556Q124.133 168.457 125.702 166.395Q127.271 164.333 128.89 162.31Q130.509 160.287 132.176 158.304Q133.843 156.32 135.557 154.378Q137.272 152.435 139.033 150.535Q140.794 148.634 142.601 146.777Q144.408 144.92 146.258 143.107Q148.109 141.294 150.004 139.526Q151.898 137.758 153.835 136.037Q155.771 134.315 157.749 132.641Q159.726 130.967 161.744 129.342Q163.762 127.716 165.818 126.14Q167.874 124.563 169.968 123.037Q172.062 121.511 174.192 120.036Q176.322 118.561 178.487 117.137Q180.652 115.714 182.851 114.344Q185.05 112.974 187.282 111.657Q189.513 110.34 191.776 109.078C215.563 95.9269 242.69 86.4935 269.747 83.3368C294.511 80.4477 320.059 82.011 344.976 81.8876L498.311 81.9196Q583.474 81.3812 668.637 81.8221C688.01 81.8364 707.406 81.3072 726.769 82.0138C732.073 82.2074 738.884 81.9481 743.961 83.4118C744.211 83.5869 744.457 83.7675 744.711 83.9371C748.491 86.4611 756.766 88.1057 761.273 89.8333C769.196 92.8701 776.958 96.5685 784.45 100.544C805.446 111.683 825.656 128.293 839.135 147.932C846.059 158.021 851.567 169.001 857.074 179.903C864.288 194.185 871.063 209.676 874.694 225.31Q874.918 226.261 875.105 227.221C874.956 227.082 874.796 226.955 874.659 226.804C871.773 223.632 868.185 214.936 865.931 210.768Q861.844 203.324 857.063 196.306C830.632 158.023 789.301 134.861 743.134 130.524C732.954 129.567 722.569 129.954 712.345 129.945L663.465 129.923L506.134 129.963L353.985 129.904L315.709 129.813C299.605 129.7 283.68 129.416 267.745 132.157Q265.106 132.628 262.485 133.185Q259.863 133.741 257.261 134.383Q254.659 135.026 252.079 135.753Q249.499 136.479 246.945 137.29Q244.39 138.101 241.863 138.995Q239.337 139.889 236.84 140.865Q234.344 141.841 231.881 142.898Q229.419 143.956 226.992 145.093Q224.565 146.23 222.176 147.446Q219.787 148.661 217.44 149.955Q215.092 151.248 212.788 152.617Q210.484 153.987 208.226 155.431Q205.968 156.875 203.759 158.392Q201.549 159.909 199.391 161.497Q197.232 163.086 195.126 164.744Q193.02 166.402 190.97 168.128Q189.405 169.441 187.872 170.792Q186.34 172.143 184.841 173.53Q183.341 174.918 181.876 176.342Q180.411 177.766 178.981 179.225Q177.551 180.684 176.158 182.177Q174.764 183.67 173.406 185.197Q172.049 186.724 170.73 188.284Q169.41 189.843 168.129 191.435Q166.848 193.026 165.606 194.648Q164.363 196.27 163.161 197.921Q161.959 199.573 160.797 201.253Q159.636 202.934 158.515 204.642Q157.395 206.35 156.317 208.085Q155.238 209.82 154.202 211.581Q153.166 213.342 152.174 215.128Q151.181 216.913 150.232 218.722Q149.283 220.531 148.378 222.363Q147.474 224.195 146.614 226.048Q145.754 227.901 144.94 229.775Q144.126 231.648 143.357 233.541Q142.589 235.434 141.867 237.345Q141.145 239.256 140.469 241.184Q139.794 243.112 139.166 245.056Q138.537 247 137.957 248.958Q137.376 250.917 136.843 252.889Q136.31 254.861 135.825 256.846Q135.341 258.83 134.905 260.826Q134.468 262.822 134.081 264.828Q133.693 266.834 133.355 268.848Q133.016 270.863 132.727 272.885Q132.438 274.908 132.198 276.936Q131.958 278.965 131.767 280.999C130.703 292.972 130.963 305.059 130.954 317.066L130.912 365.774L130.891 526.064L130.791 672.974C130.889 700.075 128.985 730.246 133.735 756.859C138.353 782.739 150.104 806.083 166.955 826.118C176.913 837.956 187.358 846.919 200.126 855.611C201.934 856.841 206.826 859.371 207.348 861.238C186.925 858.179 166.109 853.882 146.704 846.685C140.228 844.283 109.966 828.83 108.034 828.634Z"/>
	<path fill="#38A389" d="M330.999 708.229C327.632 705.328 324.491 702.194 321.397 699.006C269.842 645.883 244.307 580.405 245.548 506.445Q245.61 503.209 245.752 499.976Q245.894 496.743 246.115 493.514Q246.335 490.285 246.635 487.062Q246.935 483.84 247.313 480.626Q247.692 477.412 248.149 474.208Q248.606 471.004 249.142 467.812Q249.677 464.62 250.29 461.442Q250.904 458.265 251.595 455.103Q252.286 451.941 253.054 448.797Q253.822 445.653 254.667 442.529Q255.512 439.405 256.433 436.302Q257.354 433.2 258.35 430.121Q259.347 427.042 260.419 423.988Q261.491 420.934 262.637 417.908Q263.783 414.881 265.003 411.883Q266.223 408.886 267.516 405.919Q268.809 402.952 270.175 400.018Q271.54 397.083 272.976 394.183Q274.413 391.283 275.92 388.419Q277.427 385.555 279.004 382.729Q280.581 379.903 282.227 377.116Q283.872 374.329 285.586 371.583Q287.299 368.838 289.079 366.135Q290.859 363.432 292.704 360.773Q294.55 358.115 296.46 355.502Q298.37 352.89 300.344 350.324Q302.317 347.759 304.353 345.243Q306.389 342.727 308.485 340.262Q310.582 337.797 312.738 335.383Q314.895 332.97 317.11 330.61Q319.324 328.25 321.596 325.946Q323.868 323.641 326.196 321.392Q328.539 319.097 330.937 316.861Q333.336 314.625 335.789 312.448Q338.241 310.271 340.747 308.156Q343.252 306.04 345.809 303.986Q348.366 301.933 350.972 299.943Q353.579 297.952 356.233 296.027Q358.888 294.102 361.589 292.242Q364.29 290.382 367.036 288.589Q369.781 286.797 372.571 285.072Q375.36 283.347 378.19 281.691Q381.021 280.036 383.892 278.45Q386.762 276.865 389.671 275.35Q392.579 273.835 395.524 272.393Q398.469 270.95 401.449 269.58Q404.428 268.21 407.44 266.914Q410.453 265.618 413.496 264.396Q416.539 263.174 419.611 262.027Q422.684 260.88 425.783 259.81Q428.883 258.739 432.008 257.744Q435.132 256.75 438.281 255.833Q441.429 254.915 444.599 254.076Q447.769 253.236 450.959 252.474Q454.149 251.713 457.356 251.03Q460.563 250.347 463.787 249.743Q467.01 249.139 470.247 248.615Q473.484 248.09 476.733 247.645Q479.982 247.201 483.241 246.836Q486.5 246.471 489.767 246.186Q493.034 245.901 496.307 245.697Q499.58 245.493 502.857 245.369Q506.134 245.245 509.413 245.202Q512.692 245.159 515.971 245.196C583.799 246.501 651.3 273.894 698.64 323.046C701.475 325.58 709.853 335.495 712.056 336.545C720.366 346.978 728.698 357.429 735.873 368.691Q737.413 371.095 738.901 373.532Q740.389 375.969 741.825 378.436Q743.26 380.904 744.643 383.402Q746.026 385.9 747.355 388.427Q748.684 390.954 749.958 393.509Q751.233 396.064 752.453 398.645Q753.672 401.227 754.836 403.834Q756.001 406.441 757.109 409.072Q758.217 411.703 759.269 414.357Q760.321 417.012 761.316 419.688Q762.311 422.364 763.248 425.061Q764.186 427.758 765.065 430.474Q765.945 433.19 766.766 435.924Q767.588 438.659 768.35 441.41Q769.113 444.161 769.817 446.928Q770.521 449.695 771.165 452.477Q771.809 455.258 772.394 458.053Q772.979 460.847 773.504 463.654Q774.029 466.46 774.494 469.277Q774.959 472.094 775.364 474.92Q775.768 477.747 776.113 480.581Q776.457 483.415 776.74 486.256Q777.024 489.097 777.246 491.944Q777.469 494.79 777.631 497.641Q777.793 500.491 777.894 503.344Q777.995 506.198 778.034 509.053Q778.074 511.907 778.053 514.762Q778.032 517.617 777.95 520.471Q777.868 523.325 777.724 526.177Q777.581 529.028 777.377 531.876Q777.173 534.724 776.908 537.567Q776.644 540.41 776.318 543.246Q775.926 546.528 775.454 549.799Q774.982 553.07 774.431 556.329Q773.879 559.587 773.248 562.832Q772.616 566.076 771.906 569.304Q771.195 572.531 770.406 575.741Q769.617 578.95 768.75 582.139Q767.882 585.328 766.937 588.495Q765.992 591.662 764.969 594.805Q763.947 597.948 762.848 601.065Q761.749 604.182 760.574 607.271Q759.399 610.36 758.149 613.42Q756.899 616.479 755.574 619.507Q754.25 622.535 752.851 625.53Q751.453 628.525 749.982 631.484Q748.511 634.444 746.968 637.367Q745.425 640.289 743.811 643.174Q742.197 646.058 740.513 648.901Q738.829 651.745 737.076 654.547Q735.322 657.349 733.501 660.107Q731.68 662.865 729.792 665.577Q727.904 668.29 725.95 670.956Q723.996 673.621 721.978 676.238Q719.959 678.855 717.877 681.422Q715.795 683.989 713.651 686.504Q711.507 689.02 709.302 691.482Q707.097 693.943 704.833 696.351Q702.568 698.758 700.245 701.109Q697.923 703.461 695.543 705.754Q693.164 708.048 690.729 710.283Q688.294 712.517 685.805 714.692Q683.316 716.867 680.775 718.98Q678.233 721.093 675.641 723.143Q673.098 725.127 670.507 727.049Q667.916 728.971 665.28 730.829Q662.643 732.687 659.962 734.481Q657.281 736.275 654.557 738.003Q651.833 739.73 649.068 741.392Q646.303 743.053 643.499 744.646Q640.694 746.24 637.851 747.764Q635.009 749.289 632.13 750.744Q629.251 752.2 626.338 753.584Q623.425 754.969 620.479 756.283Q617.532 757.596 614.555 758.838Q611.578 760.079 608.572 761.248Q605.565 762.417 602.531 763.512Q599.497 764.607 596.437 765.629Q593.378 766.65 590.294 767.596Q587.21 768.543 584.104 769.414Q580.999 770.285 577.872 771.081Q574.746 771.876 571.602 772.596Q568.457 773.315 565.296 773.958Q562.135 774.6 558.96 775.166Q555.784 775.731 552.595 776.219Q549.407 776.707 546.207 777.118Q543.008 777.528 539.799 777.861Q536.591 778.193 533.375 778.448Q530.16 778.702 526.939 778.879Q523.718 779.055 520.494 779.153Q517.27 779.25 514.044 779.27Q510.818 779.289 507.593 779.23Q504.368 779.171 501.145 779.034Q497.923 778.896 494.704 778.681Q491.486 778.465 488.273 778.171Q485.061 777.877 481.857 777.505C442.564 773.007 405.308 759.034 371.648 738.519C362.182 732.751 353.461 725.79 344.039 720.07C341.828 716.838 334.321 711.716 330.999 708.229Z"/>
</svg>
